<svg id="Layer_1" viewBox="0 0 24 24" xmlns="http://www.w3.org/2000/svg" data-name="Layer 1"><path d="m17 10c-3.859 0-7 3.14-7 7s3.141 7 7 7 7-3.14 7-7-3.141-7-7-7zm0 12c-2.757 0-5-2.243-5-5s2.243-5 5-5 5 2.243 5 5-2.243 5-5 5zm1-6h2v2h-2v2h-2v-2h-2v-2h2v-2h2zm-10-5.3v6.3c0-2.141.751-4.105 1.999-5.65v-.646l6.001-3.43v.784c.329-.036.662-.059 1-.059s.671.022 1 .059v-2.963l-9.01-5.09-8.99 5.091v10.464l8.73 4.99c-.362-.842-.596-1.75-.686-2.701l-6.044-3.45v-7.127l6 3.429zm.992-8.398 5.871 3.318-5.861 3.35-5.865-3.352 5.855-3.315z"/></svg>