<svg width="15" height="15" viewBox="0 0 15 15" fill="none" xmlns="http://www.w3.org/2000/svg">
<path d="M7.2525 8.703C11.2559 8.703 14.505 10.2212 14.505 12.0875V14.505H0V12.0875C0 10.2212 3.24912 8.703 7.2525 8.703ZM13.538 12.0875C13.538 10.753 10.724 9.67 7.2525 9.67C3.78097 9.67 0.967 10.753 0.967 12.0875V13.538H13.538V12.0875ZM7.2525 0C8.15013 0 9.01099 0.35658 9.6457 0.991297C10.2804 1.62601 10.637 2.48688 10.637 3.3845C10.637 4.28213 10.2804 5.14299 9.6457 5.7777C9.01099 6.41242 8.15013 6.769 7.2525 6.769C6.35488 6.769 5.49401 6.41242 4.8593 5.7777C4.22458 5.14299 3.868 4.28213 3.868 3.3845C3.868 2.48688 4.22458 1.62601 4.8593 0.991297C5.49401 0.35658 6.35488 0 7.2525 0ZM7.2525 0.967C6.61134 0.967 5.99644 1.2217 5.54307 1.67507C5.0897 2.12844 4.835 2.74334 4.835 3.3845C4.835 4.02566 5.0897 4.64056 5.54307 5.09393C5.99644 5.5473 6.61134 5.802 7.2525 5.802C7.89366 5.802 8.50856 5.5473 8.96193 5.09393C9.4153 4.64056 9.67 4.02566 9.67 3.3845C9.67 2.74334 9.4153 2.12844 8.96193 1.67507C8.50856 1.2217 7.89366 0.967 7.2525 0.967Z" fill="#2B2B2B" fill-opacity="0.4"/>
</svg>
