<svg width="13" height="17" viewBox="0 0 13 17" fill="none" xmlns="http://www.w3.org/2000/svg">
<path d="M6.44667 12.8933C6.87411 12.8933 7.28404 12.7235 7.58629 12.4213C7.88853 12.119 8.05833 11.7091 8.05833 11.2817C8.05833 10.8542 7.88853 10.4443 7.58629 10.142C7.28404 9.8398 6.87411 9.67 6.44667 9.67C6.01923 9.67 5.60929 9.8398 5.30705 10.142C5.0048 10.4443 4.835 10.8542 4.835 11.2817C4.835 11.7091 5.0048 12.119 5.30705 12.4213C5.60929 12.7235 6.01923 12.8933 6.44667 12.8933ZM11.2817 5.64083C11.7091 5.64083 12.119 5.81063 12.4213 6.11288C12.7235 6.41513 12.8933 6.82506 12.8933 7.2525V15.3108C12.8933 15.7383 12.7235 16.1482 12.4213 16.4505C12.119 16.7527 11.7091 16.9225 11.2817 16.9225H1.61167C1.18423 16.9225 0.774292 16.7527 0.472046 16.4505C0.1698 16.1482 0 15.7383 0 15.3108V7.2525C0 6.82506 0.1698 6.41513 0.472046 6.11288C0.774292 5.81063 1.18423 5.64083 1.61167 5.64083H2.4175V4.02917C2.4175 2.96057 2.842 1.93573 3.59762 1.18012C4.35323 0.4245 5.37807 0 6.44667 0C6.97578 0 7.49972 0.104217 7.98856 0.306702C8.4774 0.509187 8.92158 0.805973 9.29572 1.18012C9.66986 1.55426 9.96665 1.99843 10.1691 2.48727C10.3716 2.97611 10.4758 3.50005 10.4758 4.02917V5.64083H11.2817ZM6.44667 1.61167C5.80551 1.61167 5.19061 1.86637 4.73724 2.31974C4.28387 2.77311 4.02917 3.38801 4.02917 4.02917V5.64083H8.86417V4.02917C8.86417 3.38801 8.60947 2.77311 8.1561 2.31974C7.70273 1.86637 7.08783 1.61167 6.44667 1.61167Z" fill="#2B2B2B" fill-opacity="0.4"/>
</svg>
